# AST/ASF file generated using VICON BodyLanguage
# -----------------------------------------------
:version 1.10
:name VICON
:units
  mass 1.0
  length 0.45
  angle deg
:documentation
   .ast/.asf automatically generated from VICON data using
   VICON BodyBuilder and BodyLanguage model FoxedUp or BRILLIANT.MOD
:root
   order TX TY TZ RX RY RZ
   axis XYZ
   position 0 0 0  
   orientation 0 0 0 
:bonedata
  begin
     id 1 
     name lhipjoint
     direction 0.630082 -0.636569 0.44472 
     length 2.82754 
     axis 0 0 0  XYZ
  end
  begin
     id 2 
     name lfemur
     direction 0.34202 -0.939693 0  
     length 7.26371  
     axis 0 0 20  XYZ
    dof rx ry rz
    limits (-160.0 20.0)
           (-70.0 70.0)
           (-60.0 70.0)
  end
  begin
     id 3 
     name ltibia
     direction 0.34202 -0.939693 0   
     length 7.88616   
     axis 0 0 20   XYZ
    dof rx
    limits (-10.0 170.0)
  end
  begin
     id 4 
     name lfoot
     direction 0.0603448 -0.165796 0.984312   
     length 1.77861   
     axis -90 7.62852e-016 20   XYZ
    dof rx rz
    limits (-45.0 90.0)
           (-70.0 20.0)
  end
  begin
     id 5 
     name ltoes
     direction 1.53577e-011 -4.21876e-011 1   
     length 0.902235   
     axis -90 7.62852e-016 20   XYZ
    dof rx
    limits (-90.0 20.0)
  end
  begin
     id 6 
     name rhipjoint
     direction -0.656778 -0.61817 0.431866   
     length 2.9117  
     axis 0 0 0  XYZ 
  end
  begin
     id 7 
     name rfemur
     direction -0.34202 -0.939693 0   
     length 6.81603   
     axis 0 0 -20   XYZ
    dof rx ry rz
    limits (-160.0 20.0)
           (-70.0 70.0)
           (-70.0 60.0)
  end
  begin
     id 8 
     name rtibia
     direction -0.34202 -0.939693 0   
     length 8.05997   
     axis 0 0 -20   XYZ
    dof rx
    limits (-10.0 170.0)
 end
 begin
     id 9 
     name rfoot
     direction -0.0862404 -0.236944 0.967688   
     length 1.84899  
     axis -90 -7.62852e-016 -20   XYZ
    dof rx rz
    limits (-45.0 90.0)
           (-20.0 70.0)
  end
  begin
     id 10 
     name rtoes
     direction -1.53561e-011 -4.21798e-011 1   
     length 0.931579   
     axis -90 -7.62852e-016 -20   XYZ
    dof rx
    limits (-90.0 20.0)
  end
  begin
     id 11 
     name lowerback
     direction -0.0110203 0.991769 -0.127564   
     length 2.05686   
     axis 0 0 0   XYZ
    dof rx ry rz
    limits (-20.0 45.0)
           (-30.0 30.0)
           (-30.0 30.0)
  end
  begin
     id 12 
     name upperback
     direction 0.0109719 0.99993 -0.00432479   
     length 2.06234   
     axis 0 0 0   XYZ
    dof rx ry rz
    limits (-20.0 45.0)
           (-30.0 30.0)
           (-30.0 30.0)
  end
  begin
     id 13 
     name thorax
     direction 0.0173308 0.998351 0.0547306   
     length 2.09856   
     axis 0 0 0   XYZ
    dof rx ry rz
    limits (-20.0 45.0)
           (-30.0 30.0)
           (-30.0 30.0)
  end
  begin
     id 14 
     name lowerneck
     direction -0.0311736 0.989033 0.144366   
     length 1.98151   
     axis 0 0 0   XYZ
    dof rx ry rz
    limits (-20.0 45.0)
           (-30.0 30.0)
           (-30.0 30.0)
  end
  begin
     id 15 
     name upperneck
     direction 0.0421057 0.975772 -0.214698   
     length 2.01457   
     axis 0 0 0   XYZ
    dof rx ry rz
    limits (-20.0 45.0)
           (-30.0 30.0)
           (-30.0 30.0)
  end
  begin
     id 16
     name head
     direction 0.0136911 0.995958 -0.0887718  
     length 2.03562  
     axis 0 0 0   XYZ
    dof rx ry rz
    limits (-20.0 45.0)
           (-30.0 30.0)
           (-30.0 30.0)
  end
  begin
     id 17 
     name lclavicle
     direction 0.915335 0.396201 0.0720134  
     length 4.16217  
     axis 0 0 0   XYZ
    dof ry rz
    limits (-20.0 10.0)
           (0.0 20.0)
  end
  begin
     id 18 
     name lhumerus
     direction 1 -4.48965e-011 6.383e-018   
     length 4.93042   
     axis -180 -30 -90   XYZ
    dof rx ry rz
    limits (-60.0 90.0)
           (-90.0 90.0)
           (-90.0 90.0)
  end
  begin
     id 19
     name lradius
     direction 1 -4.48972e-011 8.8689e-027   
     length 3.68177   
     axis -180 -30 -90   XYZ
    dof rx
    limits (-10.0 170.0)
  end
  begin
     id 20
     name lwrist
     direction 1 -4.48953e-011 1.17971e-026   
     length 1.84089   
     axis -7.69454e-015 90 90   XYZ
    dof ry
    limits (-180.0 0.0)
 end
  begin
     id 21 
     name lhand
     direction 1 -4.49027e-011 2.35802e-026   
     length 0.721479   
     axis -1.50533e-014 90 90   XYZ
    dof rx rz
    limits (-90.0 90.0)
           (-45.0 45.0)
  end
  begin
     id 22 
     name lfingers
     direction 1 -4.48915e-011 4.72027e-026   
     length 0.581675   
     axis -3.01059e-014 90 90   XYZ
    dof rx
    limits (0.0 90.0)
  end
  begin
     id 23
     name lthumb
     direction 0.707107 -6.34948e-011 0.707107   
     length 0.835172   
     axis -90 45 -5.12164e-014   XYZ
    dof rx rz
    limits (-45.0 45.0)
           (-45.0 45.0)
  end
  begin
     id 24 
     name rclavicle
     direction -0.882781 0.469197 0.0234974   
     length 3.95647  
     axis 0 0 0   XYZ 
    dof ry rz
    limits (-10.0 20.0)
           (-20.0 0.0)
  end
  begin
     id 25 
     name rhumerus
     direction -1 -4.48965e-011 -1.54906e-018  
     length 5.07905   
     axis -180 30 90   XYZ
    dof rx ry rz
    limits (-90.0 60.0)
           (-90.0 90.0)
           (-90.0 90.0)
  end
  begin
     id 26 
     name rradius
     direction -1 -4.48972e-011 5.47489e-027   
     length 3.54394   
     axis -180 30 90   XYZ
    dof rx
    limits (-10.0 170.0)
  end
  begin
     id 27 
     name rwrist
     direction -1 -4.48955e-011 1.17969e-026   
     length 1.77197   
     axis -7.69454e-015 -90 -90   XYZ
    dof ry
    limits (-180.0 0.0)
  end
  begin
     id 28
     name rhand
     direction -1 -4.48982e-011 2.35888e-026   
     length 0.681156   
     axis -1.50533e-014 -90 -90   XYZ
    dof rx rz
    limits (-90.0 90.0)
           (-45.0 45.0)
  end
  begin
     id 29
     name rfingers
     direction -1 -4.48955e-011 4.71877e-026   
     length 0.549165   
     axis -3.01059e-014 -90 -90   XYZ
    dof rx
    limits (0.0 90.0)
  end
  begin
     id 30
     name rthumb
     direction -0.707107 -6.3491e-011 0.707107   
     length 0.788495   
     axis -90 -45 5.12164e-014   XYZ
    dof rx rz
    limits (-45.0 45.0)
           (-45.0 45.0)
  end
:hierarchy
  begin
    root lhipjoint rhipjoint lowerback
    lhipjoint lfemur
    lfemur ltibia
    ltibia lfoot
    lfoot ltoes
    rhipjoint rfemur
    rfemur rtibia
    rtibia rfoot
    rfoot rtoes
    lowerback upperback
    upperback thorax
    thorax lowerneck lclavicle rclavicle
    lowerneck upperneck
    upperneck head
    lclavicle lhumerus
    lhumerus lradius
    lradius lwrist
    lwrist lhand lthumb
    lhand lfingers
    rclavicle rhumerus
    rhumerus rradius
    rradius rwrist
    rwrist rhand rthumb
    rhand rfingers
  end

#!OML:ASF H:\Bending\Project 1\Capture day 1\Session 1\Subject.ASF
:FULLY-SPECIFIED
:DEGREES
192
root -9.4091 17.83 -16.1447 381.057 94.4091 377.269
lowerback 8.41996 -1.45291 -0.129469
upperback -2.65858 -1.68184 3.30202
thorax -7.43152 -0.714728 3.8045
lowerneck -25.4842 -3.03421 -5.22536
upperneck 29.3827 -3.18144 3.73708
head 14.5639 -1.28778 1.82283
rclavicle 1.23743e-014 3.4191e-014
rhumerus -43.4451 25.5788 -94.3729
rradius 91.2104
rwrist 3.45837
rhand -27.2695 -19.0682
rfingers 7.12502
rthumb -0.680354 -49.0469
lclavicle 1.23743e-014 3.4191e-014
lhumerus -50.5337 -23.43 103.663
lradius 99.4289
lwrist 32.0239
lhand -38.4954 6.20627
lfingers 7.12502
lthumb -11.517 35.8699
rfemur 7.70277 1.76126 14.6789
rtibia -1.59028e-015
rfoot -9.42987 -15.7653
rtoes -23.2612
lfemur -11.3426 -8.29096 -11.1329
ltibia 27.2871
lfoot -22.4035 14.0636
ltoes -42.474
193
root -9.40654 17.8432 -16.1451 379.166 94.2033 375.392
lowerback 8.10838 -1.41345 -0.172922
upperback -2.697 -1.65377 3.13156
thorax -7.29754 -0.706853 3.63299
lowerneck -25.3746 -2.96656 -5.11254
upperneck 29.5363 -3.10697 3.66655
head 14.6006 -1.25131 1.79324
rclavicle -2.08475e-014 1.43125e-014
rhumerus -43.8939 25.3166 -95.1429
rradius 92.9161
rwrist 5.37262
rhand -28.0914 -18.7268
rfingers 7.12502
rthumb -1.47422 -48.7014
lclavicle -2.08475e-014 1.43125e-014
lhumerus -50.49 -22.8135 103.331
lradius 100.661
lwrist 32.2564
lhand -38.9392 7.01364
lfingers 7.12502
lthumb -11.945 36.6528
rfemur 7.72105 1.903 14.5417
rtibia 9.54166e-015
rfoot -9.39282 -15.7362
rtoes -23.0933
lfemur -10.7724 -9.63417 -11.4587
ltibia 26.4898
lfoot -22.8018 15.3297
ltoes -41.6207
194
root -9.4051 17.8561 -16.1445 376.876 94.0295 373.085
lowerback 7.80996 -1.37237 -0.21739
upperback -2.75128 -1.62259 2.95297
thorax -7.18839 -0.696872 3.45493
lowerneck -25.3241 -2.89565 -4.94738
upperneck 29.7461 -3.02152 3.52433
head 14.672 -1.21381 1.728
rclavicle 9.93923e-016 -7.95139e-015
rhumerus -44.2745 25.0374 -95.9083
rradius 94.558
rwrist 6.93029
rhand -29.0986 -18.7711
rfingers 7.12502
rthumb -2.4469 -48.7368
lclavicle 9.93923e-016 -7.95139e-015
lhumerus -50.2828 -22.4158 102.986
lradius 101.705
lwrist 32.6694
lhand -39.5271 8.02629
lfingers 7.12502
lthumb -12.5119 37.6317
rfemur 7.71388 2.01132 14.3943
rtibia -6.36111e-015
rfoot -9.37459 -15.7119
rtoes -22.8472
lfemur -10.2496 -10.8997 -11.779
ltibia 25.6895
lfoot -23.133 16.476
ltoes -40.8616
195
root -9.40521 17.8674 -16.1427 374.639 93.9064 370.812
lowerback 7.53973 -1.3367 -0.243282
upperback -2.82033 -1.59377 2.78586
thorax -7.11119 -0.687609 3.28113
lowerneck -25.3276 -2.83553 -4.76858
upperneck 30.0061 -2.94215 3.34741
head 14.7778 -1.18161 1.6453
rclavicle 1.89342e-014 -1.74931e-014
rhumerus -44.558 24.7654 -96.6475
rradius 96.0613
rwrist 7.99785
rhand -30.3045 -19.3321
rfingers 7.12502
rthumb -3.61152 -49.2812
lclavicle 1.89342e-014 -1.74931e-014
lhumerus -49.9084 -22.1684 102.635
lradius 102.546
lwrist 33.3847
lhand -40.184 9.0886
lfingers 7.12502
lthumb -13.1452 38.6543
rfemur 7.68658 2.07971 14.2694
rtibia 9.54166e-015
rfoot -9.37578 -15.7068
rtoes -22.5968
lfemur -9.80168 -12.063 -12.0502
ltibia 24.9488
lfoot -23.42 17.4869
ltoes -40.2764
196
root -9.40729 17.8756 -16.1402 372.883 93.8307 369.013
lowerback 7.30892 -1.31199 -0.24368
upperback -2.89885 -1.57286 2.64886
thorax -7.06619 -0.681631 3.12806
lowerneck -25.3578 -2.79734 -4.62683
upperneck 30.2868 -2.88217 3.18506
head 14.9019 -1.15944 1.57099
rclavicle 8.4732e-015 -2.46493e-014
rhumerus -44.7145 24.5176 -97.3263
rradius 97.3602
rwrist 8.52492
rhand -31.5736 -20.324
rfingers 7.12502
rthumb -4.83706 -50.2488
lclavicle 8.4732e-015 -2.46493e-014
lhumerus -49.3756 -21.9837 102.289
lradius 103.195
lwrist 34.4644
lhand -40.8239 10.0567
lfingers 7.12502
lthumb -13.762 39.5815
rfemur 7.64569 2.11671 14.1882
rtibia -4.77083e-015
rfoot -9.3788 -15.732
rtoes -22.4776
lfemur -9.44536 -13.1075 -12.2483
ltibia 24.3268
lfoot -23.7018 18.3608
ltoes -39.8662
197
root -9.41154 17.8802 -16.1377 371.832 93.7865 367.924
lowerback 7.12061 -1.30047 -0.219482
upperback -2.98073 -1.56258 2.5537
thorax -7.04824 -0.680103 3.00853
lowerneck -25.3814 -2.78378 -4.55474
upperneck 30.5536 -2.84402 3.06761
head 15.0229 -1.14826 1.52233
rclavicle 4.34841e-016 6.36111e-015
rhumerus -44.7228 24.295 -97.8999
rradius 98.417
rwrist 8.53869
rhand -32.7058 -21.491
rfingers 7.12502
rthumb -5.9302 -51.388
lclavicle 4.34841e-016 6.36111e-015
lhumerus -48.7074 -21.7871 101.959
lradius 103.693
lwrist 35.8527
lhand -41.3751 10.8516
lfingers 7.12502
lthumb -14.293 40.3397
rfemur 7.5958 2.1377 14.1547
rtibia -7.95139e-015
rfoot -9.36173 -15.7876
rtoes -22.5868
lfemur -9.18548 -14.0204 -12.3707
ltibia 23.8587
lfoot -24.0082 19.0995
ltoes -39.568
198
root -9.41789 17.8815 -16.1362 371.466 93.7544 367.527
lowerback 6.97011 -1.29895 -0.178469
upperback -3.06082 -1.55982 2.5022
thorax -7.04915 -0.681341 2.9279
lowerneck -25.3752 -2.78776 -4.55173
upperneck 30.7824 -2.81847 2.99397
head 15.1238 -1.14474 1.50052
rclavicle -1.96921e-014 -3.97569e-015
rhumerus -44.5759 24.0833 -98.3219
rradius 99.2259
rwrist 8.12797
rhand -33.5435 -22.5482
rfingers 7.12502
rthumb -6.73891 -52.421
lclavicle -1.96921e-014 -3.97569e-015
lhumerus -47.9346 -21.5408 101.656
lradius 104.088
lwrist 37.3754
lhand -41.798 11.4734
lfingers 7.12502
lthumb -14.7005 40.9322
rfemur 7.5396 2.15892 14.1578
rtibia 3.18055e-015
rfoot -9.31165 -15.8614
rtoes -22.9179
lfemur -9.01446 -14.7784 -12.4312
ltibia 23.5456
lfoot -24.3353 19.6968
ltoes -39.3048
199
root -9.42598 17.8807 -16.136 371.598 93.7178 367.639
lowerback 6.84763 -1.29892 -0.132483
upperback -3.13576 -1.55537 2.48692
thorax -7.06007 -0.680717 2.88327
lowerneck -25.3346 -2.79742 -4.59094
upperneck 30.9663 -2.79224 2.942
head 15.1983 -1.14351 1.49443
rclavicle 2.63452e-014 -2.38542e-014
rhumerus -44.2794 23.862 -98.5574
rradius 99.8045
rwrist 7.42013
rhand -34.0368 -23.3178
rfingers 7.12502
rthumb -7.21509 -53.1748
lclavicle 2.63452e-014 -2.38542e-014
lhumerus -47.0861 -21.2521 101.388
lradius 104.424
lwrist 38.8027
lhand -42.0915 11.9677
lfingers 7.12502
lthumb -14.9833 41.4057
rfemur 7.47806 2.19291 14.1791
rtibia 1.74931e-014
rfoot -9.23036 -15.9351
rtoes -23.3652
lfemur -8.91597 -15.3404 -12.4494
ltibia 23.3578
lfoot -24.6354 20.1357
ltoes -39.0459
200
root -9.43538 17.8793 -16.1369 372.018 93.665 368.039
lowerback 6.74236 -1.28889 -0.0948111
upperback -3.20426 -1.53641 2.49533
thorax -7.07396 -0.671832 2.86688
lowerneck -25.2695 -2.80449 -4.64115
upperneck 31.112 -2.75896 2.89101
head 15.2501 -1.14109 1.49146
rclavicle -1.69837e-014 3.18055e-015
rhumerus -43.8446 23.617 -98.592
rradius 100.178
rwrist 6.55173
rhand -34.2464 -23.7751
rfingers 7.12502
rthumb -7.41744 -53.6251
lclavicle -1.69837e-014 3.18055e-015
lhumerus -46.1817 -20.9619 101.15
lradius 104.722
lwrist 39.9417
lhand -42.284 12.3751
lfingers 7.12502
lthumb -15.1687 41.7992
rfemur 7.41008 2.24733 14.2035
rtibia 3.18055e-015
rfoot -9.13097 -15.9939
rtoes -23.784
lfemur -8.87085 -15.6539 -12.4407
ltibia 23.249
lfoot -24.8334 20.3959
ltoes -38.8264
201
root -9.44566 17.8787 -16.138 372.584 93.5876 368.581
lowerback 6.64517 -1.25781 -0.0792849
upperback -3.26686 -1.49053 2.51572
thorax -7.08669 -0.648374 2.87236
lowerneck -25.1938 -2.81085 -4.69088
upperneck 31.2305 -2.72693 2.84387
head 15.2871 -1.1389 1.48932
rclavicle 4.16205e-015 -2.46493e-014
rhumerus -43.2802 23.3519 -98.4327
rradius 100.37
rwrist 5.6399
rhand -34.2989 -24.0096
rfingers 7.12502
rthumb -7.4681 -53.8578
lclavicle 4.16205e-015 -2.46493e-014
lhumerus -45.2289 -20.7206 100.927
lradius 104.978
lwrist 40.7093
lhand -42.413 12.7021
lfingers 7.12502
lthumb -15.293 42.1167
rfemur 7.33145 2.32747 14.2255
rtibia 0
rfoot -9.0279 -16.0333
rtoes -24.0685
lfemur -8.86205 -15.6762 -12.4118
ltibia 23.1732
lfoot -24.8622 20.4671
ltoes -38.7199
202
root -9.45648 17.8795 -16.1381 373.283 93.4772 369.243
lowerback 6.55053 -1.19813 -0.0981845
upperback -3.32512 -1.40934 2.54175
thorax -7.09707 -0.605826 2.89887
lowerneck -25.1144 -2.82862 -4.7576
upperneck 31.3281 -2.71796 2.83241
head 15.3158 -1.1433 1.50013
rclavicle 3.71479e-015 -3.49861e-014
rhumerus -42.5876 23.0915 -98.1025
rradius 100.396
rwrist 4.76309
rhand -34.3175 -24.1535
rfingers 7.12502
rthumb -7.48608 -54.001
lclavicle 3.71479e-015 -3.49861e-014
lhumerus -44.2279 -20.5671 100.704
lradius 105.168
lwrist 41.1456
lhand -42.5054 12.9358
lfingers 7.12502
lthumb -15.382 42.3436
rfemur 7.23587 2.43967 14.2505
rtibia -3.49861e-014
rfoot -8.92705 -16.0599
rtoes -24.2026
lfemur -8.8783 -15.3983 -12.3619
ltibia 23.103
lfoot -24.6992 20.3626
ltoes -38.7932
203
root -9.46773 17.882 -16.136 374.338 93.2964 370.247
lowerback 6.45949 -1.09738 -0.165173
upperback -3.38066 -1.27727 2.57412
thorax -7.10818 -0.535787 2.9531
lowerneck -25.0296 -2.87323 -4.87351
upperneck 31.4075 -2.7564 2.89811
head 15.3399 -1.16217 1.54215
rclavicle -7.94517e-015 -1.59028e-015
rhumerus -41.7776 22.8208 -97.6376
rradius 100.29
rwrist 3.98711
rhand -34.3316 -24.2971
rfingers 7.12502
rthumb -7.49965 -54.1441
lclavicle -7.94517e-015 -1.59028e-015
lhumerus -43.1783 -20.5181 100.47
lradius 105.257
lwrist 41.3692
lhand -42.5591 13.0811
lfingers 7.12502
lthumb -15.4338 42.4849
rfemur 7.10724 2.62221 14.2888
rtibia -3.65764e-014
rfoot -8.81341 -16.0856
rtoes -24.2684
lfemur -8.90443 -14.8486 -12.2913
ltibia 23.0324
lfoot -24.397 20.1332
ltoes -39.0367
